<svg xmlns="http://www.w3.org/2000/svg" width="443" height="390.5" viewBox="0 0 443 390.5">
  <defs>
    <style>
      .aec126ac-e4eb-4e27-820a-55db0fc0c2bb, .e362bad2-125a-4205-89eb-e2b7d4638bc4, .e41adcc7-d5b9-4a3d-8af3-4d35af4dd1c0, .fa96d9dd-22bf-4628-b558-bc0e97ff7c06, .ffe6cbd4-16e1-48b2-b735-73fd9db5dac2 {
        fill: none;
      }

      .fa96d9dd-22bf-4628-b558-bc0e97ff7c06 {
        stroke: #e0e0e0;
      }

      .a80ae6e8-9d31-4b0c-9e4d-5f56762ae532, .aec126ac-e4eb-4e27-820a-55db0fc0c2bb, .b9ed35ca-c225-4e48-985c-6b55c0f0a721, .e258f1c6-e00f-4a05-ba3f-e51e45d3e6bd, .e362bad2-125a-4205-89eb-e2b7d4638bc4, .e41adcc7-d5b9-4a3d-8af3-4d35af4dd1c0, .f3434383-29d6-4c0d-a127-215eb63c8ed8, .fa96d9dd-22bf-4628-b558-bc0e97ff7c06, .ffe6cbd4-16e1-48b2-b735-73fd9db5dac2 {
        stroke-miterlimit: 10;
      }

      .a4b04111-10d9-47d3-aa58-0008f5aa83c3, .b8b92e86-4eda-4a7b-b866-9e840b30506b {
        fill: #e0e0e0;
      }

      .b9782193-0c6f-4342-8e34-1bf2c62979ea {
        fill: #f0f0f0;
      }

      .ab25d603-f1d7-40d3-bd8f-34bfd3af9d5e {
        fill: #f5f5f5;
      }

      .ae2cd1f3-0d22-40da-ae44-e2c78092a678, .b17b187b-80f1-4a25-ac43-93e7f0f3024a, .bae2584b-f8c9-4fc2-a0d6-f17b19098788 {
        fill: #e6e6e6;
      }

      .a4b04111-10d9-47d3-aa58-0008f5aa83c3 {
        font-size: 22.11px;
      }

      .a4b04111-10d9-47d3-aa58-0008f5aa83c3, .a57d9ff5-3d67-4c12-a4d4-4d35bb9de8dc, .a6b9cd18-cc3c-40f1-81e2-c4c7afcb50ea, .ae2cd1f3-0d22-40da-ae44-e2c78092a678, .b2a54f53-5e1c-4000-833c-bcf608de1e8e, .bae2584b-f8c9-4fc2-a0d6-f17b19098788, .bc541174-3085-423c-a718-5a06f9eaa837, .e050af16-84f8-493d-9a55-71a189753c77, .e4efbbc7-ac99-4cae-8178-c6f6869199f5 {
        font-family: CourierPrimeCode-Regular, CourierPrimeCode Regular;
      }

      .a9dc4276-3fcb-49be-a47d-aa140645b2df, .b69364e2-cfba-4386-aed8-cc3ef0720dc4, .b9ed35ca-c225-4e48-985c-6b55c0f0a721, .e258f1c6-e00f-4a05-ba3f-e51e45d3e6bd {
        fill: #fff;
      }

      .b9ed35ca-c225-4e48-985c-6b55c0f0a721 {
        stroke: #eaeaea;
      }

      .b3bdb9bc-4bc5-41e5-9dd7-da2adc1e1c3e {
        fill: #1dc3fc;
      }

      .bc541174-3085-423c-a718-5a06f9eaa837 {
        font-size: 19.51px;
        fill: #0fb3ed;
      }

      .ae2cd1f3-0d22-40da-ae44-e2c78092a678 {
        font-size: 23.33px;
      }

      .bae2584b-f8c9-4fc2-a0d6-f17b19098788 {
        font-size: 18.32px;
      }

      .b1baa2ec-9221-4bfd-adf8-f9ab70c938b5 {
        fill: #4d5a64;
      }

      .e050af16-84f8-493d-9a55-71a189753c77 {
        font-size: 14.85px;
      }

      .a57d9ff5-3d67-4c12-a4d4-4d35bb9de8dc, .a80ae6e8-9d31-4b0c-9e4d-5f56762ae532, .b2a54f53-5e1c-4000-833c-bcf608de1e8e, .be18e762-4378-4f1a-bfa1-a8d6ba43583f, .e050af16-84f8-493d-9a55-71a189753c77 {
        fill: #fafafa;
      }

      .a80ae6e8-9d31-4b0c-9e4d-5f56762ae532, .aec126ac-e4eb-4e27-820a-55db0fc0c2bb, .f3434383-29d6-4c0d-a127-215eb63c8ed8 {
        stroke: #38bdf8;
      }

      .a6b9cd18-cc3c-40f1-81e2-c4c7afcb50ea, .e4efbbc7-ac99-4cae-8178-c6f6869199f5, .efeb68fc-79b2-4cb7-90f4-9534124d9907 {
        fill: #38bdf8;
      }

      .e4efbbc7-ac99-4cae-8178-c6f6869199f5 {
        font-size: 22.31px;
      }

      .f0044845-992e-43da-99e4-bc316a772280, .f3434383-29d6-4c0d-a127-215eb63c8ed8 {
        fill: #d880a6;
      }

      .a6b9cd18-cc3c-40f1-81e2-c4c7afcb50ea {
        font-size: 18.35px;
      }

      .ac8e6cd3-e2da-48b7-86cc-9d0f888c1857 {
        fill: #1897c4;
      }

      .f40c9f49-53ce-4d14-82b7-b9159f7fd311 {
        opacity: 0.2;
      }

      .b2a54f53-5e1c-4000-833c-bcf608de1e8e {
        font-size: 19px;
      }

      .be35fddd-a2c1-484e-93e7-08f35154d255 {
        letter-spacing: 0em;
      }

      .aa8e6da5-b550-4eed-a7f8-3aa3d2d7fb05 {
        letter-spacing: 0.01em;
      }

      .a57d9ff5-3d67-4c12-a4d4-4d35bb9de8dc {
        font-size: 29.17px;
      }

      .e258f1c6-e00f-4a05-ba3f-e51e45d3e6bd, .ffe6cbd4-16e1-48b2-b735-73fd9db5dac2 {
        stroke: #263238;
      }

      .a9dc4276-3fcb-49be-a47d-aa140645b2df, .b9a14ed8-c794-4cda-bf41-c77f11c538ba {
        opacity: 0.3;
      }

      .b2d376a2-6020-4e9f-ac2d-f2d382de09a6 {
        fill: #263238;
      }

      .e41adcc7-d5b9-4a3d-8af3-4d35af4dd1c0 {
        stroke: #000;
        stroke-width: 2px;
      }

      .e362bad2-125a-4205-89eb-e2b7d4638bc4 {
        stroke: #4d5a64;
      }

      .f1995a18-9ebc-4670-935f-22c03bfb7839 {
        fill: #2181a3;
      }
    </style>
  </defs>
  <title>4099028</title>
  <g id="a85f0fb8-797d-49bd-8283-60a4b204e90c" data-name="Background Complete">
    <g>
      <g>
        <line class="fa96d9dd-22bf-4628-b558-bc0e97ff7c06" x1="31.7" y1="77.1" x2="333.8" y2="77.1"/>
        <g>
          <path class="b8b92e86-4eda-4a7b-b866-9e840b30506b" d="M81.9,116.8a5.8,5.8,0,0,1-5.7,5.7,5.8,5.8,0,0,1,0-11.5A5.8,5.8,0,0,1,81.9,116.8Z" transform="translate(-28.8 -50.9)"/>
          <path class="b9782193-0c6f-4342-8e34-1bf2c62979ea" d="M105.3,116.8a5.8,5.8,0,1,1-5.7-5.8A5.8,5.8,0,0,1,105.3,116.8Z" transform="translate(-28.8 -50.9)"/>
          <path class="ab25d603-f1d7-40d3-bd8f-34bfd3af9d5e" d="M128.7,116.8a5.8,5.8,0,1,1-5.8-5.8A5.8,5.8,0,0,1,128.7,116.8Z" transform="translate(-28.8 -50.9)"/>
        </g>
      </g>
      <g>
        <g>
          <rect class="b17b187b-80f1-4a25-ac43-93e7f0f3024a" x="49.1" y="123.4" width="16.1" height="4.44"/>
          <rect class="b17b187b-80f1-4a25-ac43-93e7f0f3024a" x="77" y="123.4" width="109.3" height="4.44"/>
          <rect class="b17b187b-80f1-4a25-ac43-93e7f0f3024a" x="196.2" y="123.4" width="30.6" height="4.44"/>
          <rect class="b17b187b-80f1-4a25-ac43-93e7f0f3024a" x="266.1" y="182.8" width="30.6" height="4.44"/>
          <rect class="b17b187b-80f1-4a25-ac43-93e7f0f3024a" x="233.4" y="123.4" width="52.9" height="4.44"/>
          <rect class="b17b187b-80f1-4a25-ac43-93e7f0f3024a" x="65.2" y="135.2" width="16.1" height="4.44"/>
          <rect class="b17b187b-80f1-4a25-ac43-93e7f0f3024a" x="92.7" y="135.2" width="71" height="4.44"/>
          <rect class="b17b187b-80f1-4a25-ac43-93e7f0f3024a" x="187.9" y="182.8" width="71" height="4.44"/>
          <rect class="b17b187b-80f1-4a25-ac43-93e7f0f3024a" x="77" y="170.9" width="65.5" height="4.44"/>
          <rect class="b17b187b-80f1-4a25-ac43-93e7f0f3024a" x="92.7" y="147.1" width="31" height="4.44"/>
          <rect class="b17b187b-80f1-4a25-ac43-93e7f0f3024a" x="216.6" y="159" width="31" height="4.44"/>
          <rect class="b17b187b-80f1-4a25-ac43-93e7f0f3024a" x="132.7" y="147.1" width="104.6" height="4.44"/>
          <rect class="b17b187b-80f1-4a25-ac43-93e7f0f3024a" x="77" y="182.8" width="104.6" height="4.44"/>
          <rect class="b17b187b-80f1-4a25-ac43-93e7f0f3024a" x="230" y="135.2" width="83.9" height="4.44"/>
          <rect class="b17b187b-80f1-4a25-ac43-93e7f0f3024a" x="171.2" y="135.2" width="52.1" height="4.44"/>
          <rect class="b17b187b-80f1-4a25-ac43-93e7f0f3024a" x="243.3" y="147.1" width="52.1" height="4.44"/>
          <rect class="b17b187b-80f1-4a25-ac43-93e7f0f3024a" x="65.2" y="147.1" width="16.1" height="4.44"/>
          <rect class="b17b187b-80f1-4a25-ac43-93e7f0f3024a" x="49.1" y="159" width="16.1" height="4.44"/>
          <rect class="b17b187b-80f1-4a25-ac43-93e7f0f3024a" x="77" y="159" width="44.9" height="4.44"/>
          <rect class="b17b187b-80f1-4a25-ac43-93e7f0f3024a" x="92.7" y="194.7" width="44.9" height="4.44"/>
          <rect class="b17b187b-80f1-4a25-ac43-93e7f0f3024a" x="194.7" y="206.6" width="72.3" height="4.44"/>
          <rect class="b17b187b-80f1-4a25-ac43-93e7f0f3024a" x="145.3" y="194.7" width="70.3" height="4.44"/>
          <rect class="b17b187b-80f1-4a25-ac43-93e7f0f3024a" x="128.5" y="206.6" width="57.9" height="4.44"/>
          <rect class="b17b187b-80f1-4a25-ac43-93e7f0f3024a" x="223.9" y="194.7" width="90.1" height="4.44"/>
          <rect class="b17b187b-80f1-4a25-ac43-93e7f0f3024a" x="92.7" y="206.6" width="27.6" height="4.44"/>
          <rect class="b17b187b-80f1-4a25-ac43-93e7f0f3024a" x="149" y="170.9" width="77.7" height="4.44"/>
          <rect class="b17b187b-80f1-4a25-ac43-93e7f0f3024a" x="233.4" y="170.9" width="65.4" height="4.44"/>
          <rect class="b17b187b-80f1-4a25-ac43-93e7f0f3024a" x="131.6" y="159" width="77.6" height="4.44"/>
          <rect class="b17b187b-80f1-4a25-ac43-93e7f0f3024a" x="49.1" y="170.9" width="16.1" height="4.44"/>
          <rect class="b17b187b-80f1-4a25-ac43-93e7f0f3024a" x="49.1" y="182.8" width="16.1" height="4.44"/>
          <rect class="b17b187b-80f1-4a25-ac43-93e7f0f3024a" x="65.2" y="194.7" width="16.1" height="4.44"/>
          <rect class="b17b187b-80f1-4a25-ac43-93e7f0f3024a" x="65.2" y="206.6" width="16.1" height="4.44"/>
        </g>
        <text class="a4b04111-10d9-47d3-aa58-0008f5aa83c3" transform="translate(48.4 114.3)">&lt;/&gt;</text>
      </g>
    </g>
    <g>
      <path class="b9ed35ca-c225-4e48-985c-6b55c0f0a721" d="M39.9,269.8H75.2a8.2,8.2,0,0,1,8.2,8.2v35.2l-8.3-7.6H39.9a8.2,8.2,0,0,1-8.1-8.2V278A8.2,8.2,0,0,1,39.9,269.8Z" transform="translate(-28.8 -50.9)"/>
      <g>
        <path class="b3bdb9bc-4bc5-41e5-9dd7-da2adc1e1c3e" d="M65.6,288.3a3.6,3.6,0,1,0,7.1,0,3.6,3.6,0,0,0-7.1,0Z" transform="translate(-28.8 -50.9)"/>
        <circle class="b3bdb9bc-4bc5-41e5-9dd7-da2adc1e1c3e" cx="28" cy="237.5" r="3.5"/>
        <circle class="b3bdb9bc-4bc5-41e5-9dd7-da2adc1e1c3e" cx="15.7" cy="237.5" r="3.5"/>
      </g>
    </g>
    <path class="b9782193-0c6f-4342-8e34-1bf2c62979ea" d="M408.1,76.5a7.9,7.9,0,0,1-7.3,7.9H356.2a9.3,9.3,0,0,1-.9-18.5,15.6,15.6,0,0,1,30.3-4.8,8,8,0,0,1,4.1-1,9.3,9.3,0,0,1,9.3,8.7h1.2A7.8,7.8,0,0,1,408.1,76.5Z" transform="translate(-28.8 -50.9)"/>
    <g>
      <rect class="b9782193-0c6f-4342-8e34-1bf2c62979ea" x="361.4" y="199" width="52.4" height="36.08" rx="7"/>
      <text class="bc541174-3085-423c-a718-5a06f9eaa837" transform="translate(370 221.9)">&lt;/&gt;</text>
    </g>
    <text class="ae2cd1f3-0d22-40da-ae44-e2c78092a678" transform="translate(340.9 178.5)">{}</text>
    <text class="bae2584b-f8c9-4fc2-a0d6-f17b19098788" transform="translate(42.7 16.8)">{}</text>
  </g>
  <g id="a60a940c-ebed-4327-b07c-e9ce2558a4c6" data-name="Screens">
    <g>
      <rect class="b1baa2ec-9221-4bfd-adf8-f9ab70c938b5" x="99.1" y="13.5" width="123.5" height="94.26" rx="8.3"/>
      <text class="e050af16-84f8-493d-9a55-71a189753c77" transform="translate(181.5 38.4)">&lt;/&gt;</text>
      <g>
        <path class="be18e762-4378-4f1a-bfa1-a8d6ba43583f" d="M165.2,86.1h32.9a.7.7,0,1,0,0-1.5H165.2a.8.8,0,0,0,0,1.5Z" transform="translate(-28.8 -50.9)"/>
        <path class="be18e762-4378-4f1a-bfa1-a8d6ba43583f" d="M139.4,99h95.2a.8.8,0,0,0,0-1.5H139.4a.8.8,0,0,0,0,1.5Z" transform="translate(-28.8 -50.9)"/>
        <path class="be18e762-4378-4f1a-bfa1-a8d6ba43583f" d="M223.8,114.1h10.8a.8.8,0,0,0,0-1.5H223.8a.7.7,0,0,0,0,1.5Z" transform="translate(-28.8 -50.9)"/>
        <path class="be18e762-4378-4f1a-bfa1-a8d6ba43583f" d="M166.4,114.1H212a.8.8,0,0,0,0-1.5H166.4a.8.8,0,0,0,0,1.5Z" transform="translate(-28.8 -50.9)"/>
        <path class="be18e762-4378-4f1a-bfa1-a8d6ba43583f" d="M139.4,126.7h95.2a.8.8,0,0,0,0-1.5H143.2c-1.2,0-2.5-.1-3.7,0h-.1a.8.8,0,0,0,0,1.5Z" transform="translate(-28.8 -50.9)"/>
        <path class="be18e762-4378-4f1a-bfa1-a8d6ba43583f" d="M206.8,140.5h27.8a.8.8,0,0,0,0-1.5H206.8a.8.8,0,0,0,0,1.5Z" transform="translate(-28.8 -50.9)"/>
        <path class="be18e762-4378-4f1a-bfa1-a8d6ba43583f" d="M166.4,140.5h31.7a.7.7,0,1,0,0-1.5H166.4a.8.8,0,0,0,0,1.5Z" transform="translate(-28.8 -50.9)"/>
      </g>
    </g>
    <g>
      <g>
        <path class="a80ae6e8-9d31-4b0c-9e4d-5f56762ae532" d="M252.7,212.9H180.6v40.5h72.1Z" transform="translate(-28.8 -50.9)"/>
        <g>
          <path class="efeb68fc-79b2-4cb7-90f4-9534124d9907" d="M187.5,216.6a1.8,1.8,0,0,1-1.8,1.8,1.8,1.8,0,1,1,0-3.6A1.8,1.8,0,0,1,187.5,216.6Z" transform="translate(-28.8 -50.9)"/>
          <path class="efeb68fc-79b2-4cb7-90f4-9534124d9907" d="M195,216.6a1.8,1.8,0,0,1-1.8,1.8,1.8,1.8,0,1,1,0-3.6A1.8,1.8,0,0,1,195,216.6Z" transform="translate(-28.8 -50.9)"/>
          <path class="efeb68fc-79b2-4cb7-90f4-9534124d9907" d="M202.5,216.6a1.8,1.8,0,0,1-1.8,1.8,1.8,1.8,0,1,1,0-3.6A1.8,1.8,0,0,1,202.5,216.6Z" transform="translate(-28.8 -50.9)"/>
        </g>
      </g>
      <text class="e4efbbc7-ac99-4cae-8178-c6f6869199f5" transform="translate(162 190.1)">HTML</text>
      <line class="aec126ac-e4eb-4e27-820a-55db0fc0c2bb" x1="151.8" y1="169.4" x2="223.9" y2="169.4"/>
    </g>
    <g>
      <g>
        <path class="a80ae6e8-9d31-4b0c-9e4d-5f56762ae532" d="M139.5,79.4H90.1v33.3h49.4Z" transform="translate(-28.8 -50.9)"/>
        <g>
          <circle class="f3434383-29d6-4c0d-a127-215eb63c8ed8" cx="65.4" cy="31.6" r="1.5"/>
          <path class="f3434383-29d6-4c0d-a127-215eb63c8ed8" d="M101.9,82.5a1.5,1.5,0,0,1-1.5,1.5,1.5,1.5,0,0,1-1.5-1.5,1.6,1.6,0,0,1,1.5-1.6A1.5,1.5,0,0,1,101.9,82.5Z" transform="translate(-28.8 -50.9)"/>
          <path class="f3434383-29d6-4c0d-a127-215eb63c8ed8" d="M108.1,82.5a1.5,1.5,0,0,1-3,0,1.5,1.5,0,1,1,3,0Z" transform="translate(-28.8 -50.9)"/>
        </g>
      </g>
      <text class="a6b9cd18-cc3c-40f1-81e2-c4c7afcb50ea" transform="translate(69.7 53.3)">PHP</text>
      <line class="aec126ac-e4eb-4e27-820a-55db0fc0c2bb" x1="61.3" y1="34.6" x2="110.7" y2="34.6"/>
    </g>
    <g>
      <g>
        <g>
          <path class="efeb68fc-79b2-4cb7-90f4-9534124d9907" d="M468.1,128.4H372.5v60.4h95.6" transform="translate(-28.8 -50.9)"/>
          <g>
            <rect class="ac8e6cd3-e2da-48b7-86cc-9d0f888c1857" x="343.7" y="77.6" width="95.6" height="11.53"/>
            <g class="f40c9f49-53ce-4d14-82b7-b9159f7fd311">
              <rect class="ac8e6cd3-e2da-48b7-86cc-9d0f888c1857" x="343.7" y="77.6" width="95.6" height="11.53"/>
            </g>
          </g>
        </g>
        <g>
          <path class="b8b92e86-4eda-4a7b-b866-9e840b30506b" d="M383.3,134.3a2.9,2.9,0,1,1-2.9-2.9A2.9,2.9,0,0,1,383.3,134.3Z" transform="translate(-28.8 -50.9)"/>
          <path class="b9782193-0c6f-4342-8e34-1bf2c62979ea" d="M395.2,134.3a2.9,2.9,0,1,1-2.9-2.9A2.9,2.9,0,0,1,395.2,134.3Z" transform="translate(-28.8 -50.9)"/>
          <path class="be18e762-4378-4f1a-bfa1-a8d6ba43583f" d="M407,134.3a2.9,2.9,0,1,1-2.9-2.9A2.9,2.9,0,0,1,407,134.3Z" transform="translate(-28.8 -50.9)"/>
        </g>
      </g>
      <text class="b2a54f53-5e1c-4000-833c-bcf608de1e8e" transform="translate(359.7 118.8)"><tspan class="be35fddd-a2c1-484e-93e7-08f35154d255">R</tspan><tspan x="10.3" y="0">ea</tspan><tspan class="aa8e6da5-b550-4eed-a7f8-3aa3d2d7fb05" x="29" y="0">c</tspan><tspan x="37.7" y="0">t JS</tspan></text>
    </g>
    <g>
      <g>
        <g>
          <path class="efeb68fc-79b2-4cb7-90f4-9534124d9907" d="M122.1,169.7H42.9v49.9h79.2" transform="translate(-28.8 -50.9)"/>
          <g>
            <rect class="efeb68fc-79b2-4cb7-90f4-9534124d9907" x="14.1" y="118.8" width="79.1" height="9.54"/>
            <g class="f40c9f49-53ce-4d14-82b7-b9159f7fd311">
              <rect class="efeb68fc-79b2-4cb7-90f4-9534124d9907" x="14.1" y="118.8" width="79.1" height="9.54"/>
            </g>
          </g>
        </g>
        <g>
          <path class="b8b92e86-4eda-4a7b-b866-9e840b30506b" d="M51.9,174.5a2.4,2.4,0,1,1-2.4-2.4A2.4,2.4,0,0,1,51.9,174.5Z" transform="translate(-28.8 -50.9)"/>
          <path class="b9782193-0c6f-4342-8e34-1bf2c62979ea" d="M61.7,174.5a2.4,2.4,0,1,1-2.4-2.4A2.4,2.4,0,0,1,61.7,174.5Z" transform="translate(-28.8 -50.9)"/>
          <path class="be18e762-4378-4f1a-bfa1-a8d6ba43583f" d="M71.5,174.5a2.4,2.4,0,1,1-2.4-2.4A2.4,2.4,0,0,1,71.5,174.5Z" transform="translate(-28.8 -50.9)"/>
        </g>
      </g>
      <text class="a57d9ff5-3d67-4c12-a4d4-4d35bb9de8dc" transform="translate(27.4 155.5)">CSS</text>
    </g>
  </g>
  <g id="f8b20330-0ccc-4447-98b0-7990d131a0f1" data-name="Desk">
    <line class="ffe6cbd4-16e1-48b2-b735-73fd9db5dac2" y1="356.4" x2="442.3" y2="356.4"/>
  </g>
  <g id="b9667538-5e0f-4877-942b-e9c91c366633" data-name="Character">
    <g>
      <g>
        <g>
          <path class="b69364e2-cfba-4386-aed8-cc3ef0720dc4" d="M197.8,267.7c-2-3.2-3.3-9.4-2.7-15.4s.9-15.1-6.6-15.5-10.1,14.7-10.5,18-13.9,5.2-24.6,1.8-30.9-7.2-39.7-4.9-5.5,9.9-5.5,9.9h0c-6.1,4.3.6,9.7.6,9.7-6.2,5.6.7,11.6,5,12.1h0a5.4,5.4,0,0,0,0,1.8c1.2,6.5,28.1,4.1,43.4,10.9s26,35.5,26,35.5l32.1-38.5S199.8,270.9,197.8,267.7Z" transform="translate(-28.8 -50.9)"/>
          <g>
            <path class="ffe6cbd4-16e1-48b2-b735-73fd9db5dac2" d="M145.7,268.4s-30.7-2.7-36.9,2.9.7,11.6,5,12.1" transform="translate(-28.8 -50.9)"/>
            <path class="ffe6cbd4-16e1-48b2-b735-73fd9db5dac2" d="M145.7,261.6s-23.2-6.3-34.7-1.5-2.2,11.2-2.2,11.2" transform="translate(-28.8 -50.9)"/>
            <path class="ffe6cbd4-16e1-48b2-b735-73fd9db5dac2" d="M108.2,261.6s-3.3-7.7,5.5-9.9,28.9,1.6,39.7,4.9,24.1,1.4,24.6-1.8,3-18.4,10.5-18,7.3,9.5,6.6,15.5.7,12.2,2.7,15.4,17.5,25.4,17.5,25.4l-32.1,38.5s-10.6-28.7-26-35.5-42.2-4.4-43.4-10.9,10.6-9.5,28.7-7.4" transform="translate(-28.8 -50.9)"/>
          </g>
        </g>
        <g>
          <path class="efeb68fc-79b2-4cb7-90f4-9534124d9907" d="M170.5,318l48.3-27.8s41.9,75.6,95.9,95.1l-64.3,24.3-51.6-3.4S178.3,363,170.5,318Z" transform="translate(-28.8 -50.9)"/>
          <g class="b9a14ed8-c794-4cda-bf41-c77f11c538ba">
            <path class="efeb68fc-79b2-4cb7-90f4-9534124d9907" d="M170.5,318l48.3-27.8s41.9,75.6,95.9,95.1l-64.3,24.3-51.6-3.4S178.3,363,170.5,318Z" transform="translate(-28.8 -50.9)"/>
          </g>
        </g>
        <g>
          <path class="be18e762-4378-4f1a-bfa1-a8d6ba43583f" d="M314.2,385.1l-1-.4v1.1l1-.3Z" transform="translate(-28.8 -50.9)"/>
          <path class="be18e762-4378-4f1a-bfa1-a8d6ba43583f" d="M293.3,377.9v15.5l1-.4V377.9h4.6l-1.7-1h-2.9v-1.8l-1-.7v2.5h-19v-17l-1-.9v17.9h-19V357h16.8l-1.1-1H254.3V339.7l-1-1.2V356H234.4V336.1h16.8l-.8-1h-16V315.2h.6l-1.6-2.3v1.3h-19V294.3h6.9a3.7,3.7,0,0,1-.6-1h-6.3v-.6l-2.7,1.6h1.7v19.9h-19v-10l-1,.6v9.4H177.2l-1.8,1h18v19.9H174.5V315.8l-1,.5v16.3c.3,1.4.6,2.8,1,4.2v-.7h18.9V356H179.8l.3,1h13.3v19.9h-6.6a4.2,4.2,0,0,0,.4,1h6.2V394a24.4,24.4,0,0,1,1,2.4V377.9h19v19.9H195l.5,1h17.9v8.4h1v-8.4h19v9.7h1v-9.7h18.9v9.6l1-.3v-9.3h19v2.1l1-.4v-1.7h4.6l2.7-1h-7.3V377.9Zm-79.9-1h-19V357h19Zm0-20.9h-19V336.1h19Zm0-20.9h-19V315.2h19Zm20,62.7h-19V377.9h19Zm0-20.9h-19V357h19Zm0-20.9h-19V336.1h19Zm0-20.9h-19V315.2h19Zm19.9,62.7H234.4V377.9h18.9Zm0-20.9H234.4V357h18.9Zm20,20.9h-19V377.9h19Z" transform="translate(-28.8 -50.9)"/>
        </g>
        <path class="ffe6cbd4-16e1-48b2-b735-73fd9db5dac2" d="M170.5,318l48.3-27.8s41.9,75.6,95.9,95.1l-64.3,24.3-51.6-3.4S178.3,363,170.5,318Z" transform="translate(-28.8 -50.9)"/>
        <line class="ffe6cbd4-16e1-48b2-b735-73fd9db5dac2" x1="146" y1="286.5" x2="201" y2="257.5"/>
        <path class="b2d376a2-6020-4e9f-ac2d-f2d382de09a6" d="M220.8,303.9a4.2,4.2,0,1,1-4.1-4.1A4.1,4.1,0,0,1,220.8,303.9Z" transform="translate(-28.8 -50.9)"/>
      </g>
      <g>
        <g>
          <g>
            <path class="efeb68fc-79b2-4cb7-90f4-9534124d9907" d="M375,334.4s12.9,34-34.4,46-103,10-103,10-5.7.1-5.3-14.8-.4-44.1,18.7-76.5,30.9-44.2,40.6-47.9c3.3-1.3,26.6-3.2,39.5,4.3C355.3,269.4,373.9,302.3,375,334.4Z" transform="translate(-28.8 -50.9)"/>
            <g class="b9a14ed8-c794-4cda-bf41-c77f11c538ba">
              <path class="efeb68fc-79b2-4cb7-90f4-9534124d9907" d="M375,334.4s12.9,34-34.4,46-103,10-103,10-5.7.1-5.3-14.8-.4-44.1,18.7-76.5,30.9-44.2,40.6-47.9c3.3-1.3,26.6-3.2,39.5,4.3C355.3,269.4,373.9,302.3,375,334.4Z" transform="translate(-28.8 -50.9)"/>
            </g>
          </g>
          <path class="be18e762-4378-4f1a-bfa1-a8d6ba43583f" d="M360.2,353h15.3l.3-1H360.2V332.1h14.7a3.8,3.8,0,0,0-.1-1H360.2V311.2h11.1l-.3-1H360.2V290.3h2.7a3.1,3.1,0,0,1-.5-1h-2.2v-3.7l-1-1.7v5.4H340.3V269.4h7.9l-.9-1h-7v-6.5l-1-.8v7.3h-19V251.5l-1-.2v17.1h-19V250.1h-1v18.2H280.4v-9.7l-1,.9v8.8h-7.9l-.8,1h8.7v19.9h-19v-5.4c-.3.5-.7,1-1,1.6v3.8h-2.5l-.6,1h3.1v19.9H245.2l-.5,1h14.7v19.9h-19v-9.4c-.3,1-.7,2-1,2.9v6.5h-1.9l-.3,1h2.2V352h-5.9a3.8,3.8,0,0,0-.1,1h6v19.9h-7.1v1h7.1v16.5h1V373.9h19v16.5h1V373.9h19v15.6h1V373.9h18.9v13.8h1V373.9h19v11l1-.2V373.9h19v6.9l1-.3v-6.6h17.4l2.5-1.5ZM259.4,372.9h-19V353h19Zm0-20.9h-19V332.1h19Zm20,20.9h-19V353h19Zm0-20.9h-19V332.1h19Zm0-20.9h-19V311.2h19Zm0-20.9h-19V290.3h19Zm19.9,62.7H280.4V353h18.9Zm0-20.9H280.4V332.1h18.9Zm0-20.9H280.4V311.2h18.9Zm0-20.9H280.4V290.3h18.9Zm0-20.9H280.4V269.4h18.9Zm20,83.6h-19V353h19Zm0-20.9h-19V332.1h19Zm0-20.9h-19V311.2h19Zm0-20.9h-19V290.3h19Zm0-20.9h-19V269.4h19Zm20,83.6h-19V353h19Zm0-20.9h-19V332.1h19Zm0-20.9h-19V311.2h19Zm0-20.9h-19V290.3h19Zm0-20.9h-19V269.4h19Zm19.9,83.6H340.3V353h18.9Zm0-20.9H340.3V332.1h18.9Zm0-20.9H340.3V311.2h18.9Zm0-20.9H340.3V290.3h18.9Z" transform="translate(-28.8 -50.9)"/>
          <path class="ffe6cbd4-16e1-48b2-b735-73fd9db5dac2" d="M288.1,251.2S223,306.4,233.4,388.1" transform="translate(-28.8 -50.9)"/>
        </g>
        <g>
          <path class="b69364e2-cfba-4386-aed8-cc3ef0720dc4" d="M332.8,369.8l3.7,51.8-61.6-6.2a11.3,11.3,0,0,0-10.6,2.8c-4.7,4.6-4.6,7-5,8.6s-1.8,7.4-4.5,10.5-5,2.9-6.9,1l-2-2s-.8-.4-1.8.6-3.8,2.2-5.3.2-1.5-1.8-1.5-1.8-.5-.9-1.4-.1-4.5,2.3-6.5,0a23.2,23.2,0,0,1-2.7-3.9,2.5,2.5,0,0,0-1.7.3c-1.2.5-5.9,1.6-8.5-4s-1.1-14.2,0-19.8,5.8-17.7,10.1-22.6,12.6-10.6,21.1-12,32.5-2.4,42.6-2.6S332.8,369.8,332.8,369.8Z" transform="translate(-28.8 -50.9)"/>
          <path class="ffe6cbd4-16e1-48b2-b735-73fd9db5dac2" d="M254.8,400.2s-9,15.9-10.6,24.7,3.3,15,6.1,14.8,6.9-3.1,8.7-11.6,7.5-12.9,11.8-12.9,68.9,6.7,68.9,6.7" transform="translate(-28.8 -50.9)"/>
          <path class="ffe6cbd4-16e1-48b2-b735-73fd9db5dac2" d="M243.5,398.1s-7.4,17.1-8.1,26,3.3,13.8,5.3,14.1,4.8-2.5,4.8-2.5" transform="translate(-28.8 -50.9)"/>
          <path class="ffe6cbd4-16e1-48b2-b735-73fd9db5dac2" d="M233.6,391.8s-8.1,16.1-8.6,25.4,1.3,15.9,4.9,18.3,7.1-1.1,7.1-1.1" transform="translate(-28.8 -50.9)"/>
          <path class="ffe6cbd4-16e1-48b2-b735-73fd9db5dac2" d="M334.5,369.8s-61.6.5-81.5,2.6-28.5,13-33,24.1-6,25.7-3.4,30.7c4.5,8.6,9.7,3.5,9.7,3.5" transform="translate(-28.8 -50.9)"/>
        </g>
        <g>
          <g>
            <path class="efeb68fc-79b2-4cb7-90f4-9534124d9907" d="M339.4,299.8s34.6,30.4,29.8,50.1-83.9,17.7-83.9,17.7v56s34.6-.8,64.4,3.1c34.7,4.6,89.4-8.3,95-49.4S416.4,261.5,325,249.2Z" transform="translate(-28.8 -50.9)"/>
            <g class="b9a14ed8-c794-4cda-bf41-c77f11c538ba">
              <path class="efeb68fc-79b2-4cb7-90f4-9534124d9907" d="M339.4,299.8s34.6,30.4,29.8,50.1-83.9,17.7-83.9,17.7v56s34.6-.8,64.4,3.1c34.7,4.6,89.4-8.3,95-49.4S416.4,261.5,325,249.2Z" transform="translate(-28.8 -50.9)"/>
            </g>
          </g>
          <path class="be18e762-4378-4f1a-bfa1-a8d6ba43583f" d="M440.1,372.9V353h3.7c0-.3-.1-.6-.1-1h-3.6V338.3c-.3-1-.6-1.9-1-2.9V352h-19V332.1h17.8a10.4,10.4,0,0,1-.4-1H420.1V311.2h7.2l-.6-1h-6.6v-9.1a6.4,6.4,0,0,0-1-1.3v10.4H400.2V290.3h10.6l-1-1h-9.6v-8.7l-1-.8v9.5h-19V269.4h4.2l-1.7-1h-2.5V267l-1-.6v2h-19V257.8l-1-.3v10.9H340.3V251.9l-1-.2v16.7h-8.8l.3,1h8.5v19.9h-2.9l.3,1h2.6v9.5l.9.8V290.3h18.9v19.9h-9.3l.9,1h8.4v10.4a7.1,7.1,0,0,1,1,1.4V311.2h19v19.9H365.3a3.1,3.1,0,0,0,.5,1h13.4V352H368.3a3.6,3.6,0,0,1-.7,1h11.6v19.9h-19V358.5l-1,.5v13.9H340.3v-8.7h-1v8.6h-19v-6.3h-1v6.2h-19v-5.3h-1v5.3h-14v1h14v19.9h-14v1h14v19.9h-14v1h14v7.9h1v-7.9h19v8.5h1v-8.5h19v9.9h1v-10h18.9v11.8h1V415.7h19v10.9h1V415.7h19v6.7l1-.3v-6.4h15.2l1.8-1h-17V394.8h18.9v18.8l1-.6V394.8h18.4c.6-.9,1.1-1.9,1.6-2.8V373.9H445c0-.3.1-.6.1-1Zm-80.9-83.6H340.3V269.4h18.9ZM319.3,414.7h-19V394.8h19Zm0-20.9h-19V373.9h19Zm20,20.9h-19V394.8h19Zm0-20.9h-19V373.9h19Zm19.9,20.9H340.3V394.8h18.9Zm0-20.9H340.3V373.9h18.9Zm20,20.9h-19V394.8h19Zm0-20.9h-19V373.9h19Zm0-83.6h-19V290.3h19Zm0-20.9h-19V269.4h19Zm20,125.4h-19V394.8h19Zm0-20.9h-19V373.9h19Zm0-20.9h-19V353h19Zm0-20.9h-19V332.1h19Zm0-20.9h-19V311.2h19Zm0-20.9h-19V290.3h19Zm19.9,83.6H400.2V373.9h18.9Zm0-20.9H400.2V353h18.9Zm0-20.9H400.2V332.1h18.9Zm0-20.9H400.2V311.2h18.9Zm20,62.7h-19V373.9h19Zm0-20.9h-19V353h19Z" transform="translate(-28.8 -50.9)"/>
          <path class="ffe6cbd4-16e1-48b2-b735-73fd9db5dac2" d="M339.4,299.8s34.6,30.4,29.8,50.1-83.9,17.7-83.9,17.7v56s34.6-.8,64.4,3.1c34.7,4.6,89.4-8.3,95-49.4S416.4,261.5,325,249.2" transform="translate(-28.8 -50.9)"/>
          <path class="b2d376a2-6020-4e9f-ac2d-f2d382de09a6" d="M299.8,413a4.1,4.1,0,1,1-4.1-4.1A4.1,4.1,0,0,1,299.8,413Z" transform="translate(-28.8 -50.9)"/>
          <line class="ffe6cbd4-16e1-48b2-b735-73fd9db5dac2" x1="276.6" y1="316.6" x2="276.6" y2="372.7"/>
        </g>
        <g>
          <path class="e41adcc7-d5b9-4a3d-8af3-4d35af4dd1c0" d="M337,203.5a12,12,0,1,1-12-11.9A11.9,11.9,0,0,1,337,203.5Z" transform="translate(-28.8 -50.9)"/>
          <g>
            <path class="e258f1c6-e00f-4a05-ba3f-e51e45d3e6bd" d="M284.8,166.6h15.1c10,0,18.1,9.3,18.1,20.7v25.3a14.9,14.9,0,0,1,.2,2.1v29.2a9.5,9.5,0,0,1-9.4,9.4h-5.9a9.5,9.5,0,0,1-9.4-9.4V231.3h-8.7c-10,0-18.2-9.3-18.2-20.7V187.3C266.6,175.9,274.8,166.6,284.8,166.6Z" transform="translate(-28.8 -50.9)"/>
            <path class="b2d376a2-6020-4e9f-ac2d-f2d382de09a6" d="M314.1,203.1l-2.8-18.3s-50.5,6.4-66.9-18.2.8-34.3,9.2-32.9,18,13.4,18,13.4-7.7-10.6,0-12.3,16.4,6.4,20.8,14.8c0,0,33.3-3.2,44.6,17s2.1,34.5-18.5,55.3l-1.3-11.7Z" transform="translate(-28.8 -50.9)"/>
            <g>
              <g>
                <path class="f0044845-992e-43da-99e4-bc316a772280" d="M309.6,206.7a8.7,8.7,0,1,1-8.7-8.7A8.7,8.7,0,0,1,309.6,206.7Z" transform="translate(-28.8 -50.9)"/>
                <path class="f0044845-992e-43da-99e4-bc316a772280" d="M268.7,199.8h-1.5v9a25.4,25.4,0,0,0,.1,3.9h1.4a6.6,6.6,0,1,0,0-13.1Z" transform="translate(-28.8 -50.9)"/>
              </g>
              <g>
                <g>
                  <path class="b2d376a2-6020-4e9f-ac2d-f2d382de09a6" d="M294,194.6a3.1,3.1,0,1,1-3.1-3.1A3.1,3.1,0,0,1,294,194.6Z" transform="translate(-28.8 -50.9)"/>
                  <path class="b2d376a2-6020-4e9f-ac2d-f2d382de09a6" d="M273.9,194.2a2.7,2.7,0,1,1-2.7-2.7A2.7,2.7,0,0,1,273.9,194.2Z" transform="translate(-28.8 -50.9)"/>
                </g>
                <g>
                  <path class="b69364e2-cfba-4386-aed8-cc3ef0720dc4" d="M276.8,206.7s1.5,4.5,4.8,4.8,5.8-3.3,6-6.1Z" transform="translate(-28.8 -50.9)"/>
                  <path class="b2d376a2-6020-4e9f-ac2d-f2d382de09a6" d="M276.5,206.8a8.4,8.4,0,0,0,2.8,4.1c2.3,1.8,5.2.9,6.9-1.2a7.7,7.7,0,0,0,1.7-4.3.2.2,0,0,0-.3-.3l-9.5,1.1-1.3.2c-.4,0-.4.7,0,.7l9.5-1.2,1.3-.2-.3-.3c-.2,2.4-1.9,5.1-4.3,5.7s-4.1-1.1-5.2-3a10.7,10.7,0,0,1-.7-1.5C277,206.2,276.3,206.4,276.5,206.8Z" transform="translate(-28.8 -50.9)"/>
                </g>
                <g>
                  <path class="e362bad2-125a-4205-89eb-e2b7d4638bc4" d="M306.5,192.8c0,6.6-4.8,12-10.8,12s-10.7-5.4-10.7-12,4.8-12,10.7-12S306.5,186.2,306.5,192.8Z" transform="translate(-28.8 -50.9)"/>
                  <path class="e362bad2-125a-4205-89eb-e2b7d4638bc4" d="M277.8,191.3c0,5.9-3.9,10.7-8.8,10.7s-8.8-4.8-8.8-10.7,3.9-10.7,8.8-10.7S277.8,185.4,277.8,191.3Z" transform="translate(-28.8 -50.9)"/>
                  <polygon class="f0044845-992e-43da-99e4-bc316a772280" points="252.1 140.7 252.1 151.1 246.7 147.8 252.1 140.7"/>
                  <path class="e362bad2-125a-4205-89eb-e2b7d4638bc4" d="M277.6,194.5s4.5-1.7,7.7.9" transform="translate(-28.8 -50.9)"/>
                </g>
              </g>
            </g>
            <line class="e362bad2-125a-4205-89eb-e2b7d4638bc4" x1="277.6" y1="142.4" x2="292.2" y2="145.4"/>
            <g>
              <path class="b69364e2-cfba-4386-aed8-cc3ef0720dc4" d="M337,203.5a12,12,0,1,1-12-11.9A11.9,11.9,0,0,1,337,203.5Z" transform="translate(-28.8 -50.9)"/>
              <path class="b2d376a2-6020-4e9f-ac2d-f2d382de09a6" d="M319,205a6.1,6.1,0,0,1,3.2-6.2,7.1,7.1,0,0,1,4.1-.5c.5,0,.5-.8,0-.9-2.4-.2-4.9.2-6.5,2.2a7.6,7.6,0,0,0-1.6,4.4,3.4,3.4,0,0,0-.1,1c.1.6.9.6.9,0Z" transform="translate(-28.8 -50.9)"/>
            </g>
            <g>
              <g>
                <rect class="f1995a18-9ebc-4670-935f-22c03bfb7839" x="253.5" y="194.4" width="48.8" height="13.07" rx="2.8"/>
                <rect class="a9dc4276-3fcb-49be-a47d-aa140645b2df" x="253.5" y="194.4" width="48.8" height="13.07" rx="2.8"/>
              </g>
              <path class="b2d376a2-6020-4e9f-ac2d-f2d382de09a6" d="M292.4,251.5a2.3,2.3,0,0,1-2.3,2.3,2.3,2.3,0,0,1,0-4.6A2.3,2.3,0,0,1,292.4,251.5Z" transform="translate(-28.8 -50.9)"/>
              <path class="be18e762-4378-4f1a-bfa1-a8d6ba43583f" d="M320.3,258.3v-9.8h10.8v-1H320.3v-2.3h-1v2.3h-19v-2.3h-1v2.3H282.4a1.3,1.3,0,0,0-.1.6v.4h17v9.8h1v-9.8h19v9.8Z" transform="translate(-28.8 -50.9)"/>
              <rect class="ffe6cbd4-16e1-48b2-b735-73fd9db5dac2" x="253.5" y="194.4" width="48.8" height="13.07" rx="2.8"/>
            </g>
          </g>
        </g>
      </g>
    </g>
  </g>
  <g id="a628cfa8-cee1-4cde-9d3e-def321bf1018" data-name="Mug">
    <g>
      <g>
        <path class="e258f1c6-e00f-4a05-ba3f-e51e45d3e6bd" d="M429.7,392.8A18.4,18.4,0,1,0,448,411.2,18.4,18.4,0,0,0,429.7,392.8Zm0,30a11.6,11.6,0,1,1,11.5-11.6A11.5,11.5,0,0,1,429.7,422.8Z" transform="translate(-28.8 -50.9)"/>
        <rect class="e258f1c6-e00f-4a05-ba3f-e51e45d3e6bd" x="351" y="331.5" width="50.6" height="58.25" rx="5.9"/>
      </g>
      <g>
        <path class="b8b92e86-4eda-4a7b-b866-9e840b30506b" d="M425.4,363.8a9.1,9.1,0,0,1-5.9,8.5,9.4,9.4,0,0,1-10.1-2.8,9,9,0,1,1,16-5.7c.1,1.4,2.3,1.4,2.3,0a11.6,11.6,0,0,0-7.4-10.6,11.3,11.3,0,1,0-1.8,21.6,11.3,11.3,0,0,0,9.2-11A1.2,1.2,0,0,0,425.4,363.8Z" transform="translate(-28.8 -50.9)"/>
        <path class="b8b92e86-4eda-4a7b-b866-9e840b30506b" d="M469.6,328.4a23.7,23.7,0,0,1-16.2,22.1,25.1,25.1,0,0,1-27-7.1,23.2,23.2,0,0,1-2.1-27c5.3-8.7,16-13,25.9-11s19.3,11.7,19.4,23a1.2,1.2,0,0,0,2.3,0,26.3,26.3,0,0,0-17.5-24.2,27.5,27.5,0,0,0-29.8,7.9,25.4,25.4,0,0,0-2.1,29.8,27.4,27.4,0,0,0,27.9,11.8c12.1-2.3,21.4-12.9,21.5-25.3A1.2,1.2,0,0,0,469.6,328.4Z" transform="translate(-28.8 -50.9)"/>
      </g>
    </g>
  </g>
  <g id="a421cd8f-d50a-4b18-a648-313d24535c00" data-name="Device">
    <g>
      <path class="b2d376a2-6020-4e9f-ac2d-f2d382de09a6" d="M99.1,441l106,.2c11,0,16.7-8.5,12.7-19.1L190,348.6c-4-10.6-16.1-19.1-27.1-19.2H57c-11-.1-16.7,8.5-12.7,19L72,421.8C76,432.4,88.2,441,99.1,441Z" transform="translate(-28.8 -50.9)"/>
      <path class="b69364e2-cfba-4386-aed8-cc3ef0720dc4" d="M115.1,379.4c1.3,4.6,6.1,8.4,10.7,8.5s7.5-3.8,6.2-8.5a11.9,11.9,0,0,0-10.7-8.5C116.7,370.9,113.9,374.7,115.1,379.4Z" transform="translate(-28.8 -50.9)"/>
      <rect class="b2d376a2-6020-4e9f-ac2d-f2d382de09a6" x="170.1" y="425.4" width="111.8" height="15.85" rx="2.5" transform="translate(422.3 816.1) rotate(-179.9)"/>
    </g>
  </g>
</svg>
